<?xml version="1.0" encoding="UTF-8"?><svg version="1.1" width="100px" height="76px" viewBox="0 0 100.0 76.0" xmlns="http://www.w3.org/2000/svg" xmlns:xlink="http://www.w3.org/1999/xlink"><defs><clipPath id="i0"><path d="M1440,0 L1440,4690 L0,4690 L0,0 L1440,0 Z"></path></clipPath><clipPath id="i1"><path d="M3.51631455,0.000410664875 C4.4820407,-0.0141890756 5.41271173,0.361025155 6.09610455,1.04092741 C6.77949737,1.72082967 7.15734802,2.64745359 7.14349433,3.60949894 L7.14349433,45.1159591 L13.2817986,45.1159591 C12.3834001,43.2453151 11.9053303,41.2144206 11.9053303,39.1864648 C11.9053303,36.0240686 12.9465793,32.8138689 15.1883929,30.3014876 C17.4302077,27.7891063 20.9329786,26.1415773 25.0003794,26.1415773 C28.5542257,26.1415773 31.6782925,27.4000911 33.9055698,29.393535 C36.5237892,25.9883497 40.6329489,23.7697796 45.2381824,23.7697796 L78.5710344,23.7697796 C86.4182187,23.7697796 92.8565424,30.1834408 92.8565424,38.0005659 C92.8565424,40.6425897 91.9244059,42.9880012 90.6476839,45.1159591 L91.6660834,45.1159591 C96.2254343,45.1159591 99.9996551,48.8753652 99.9996551,53.4172512 L99.9996551,72.391633 C100.017512,73.6746661 99.3408228,74.8680793 98.2283476,75.5148911 C97.1158724,76.161703 95.7399665,76.161703 94.6274913,75.5148911 C93.5150161,74.8680793 92.8383274,73.6746661 92.8565424,72.391633 L92.8565424,68.8339364 L7.14349433,68.8339364 L7.14349433,72.391633 C7.16170938,73.6746661 6.48502063,74.8680793 5.37254543,75.5148911 C4.26007023,76.161703 2.88416441,76.161703 1.77168921,75.5148911 C0.659214008,74.8680793 -0.0174747416,73.6746661 0.000365251757,72.391633 L0.000365251757,3.60949894 C-0.0275283673,1.64641727 1.54572195,0.0315132804 3.51631455,0.000410664875 Z M91.6660834,52.2313523 L7.14349433,52.2313523 L7.14349433,61.7185432 L92.8565424,61.7185432 L92.8565424,53.4172512 C92.8565424,52.7174641 92.3685614,52.2313523 91.6660834,52.2313523 Z M78.5710344,30.8851728 L45.2381824,30.8851728 C41.2522042,30.8851728 38.0954284,34.0298564 38.0954284,38.0005659 L38.0954284,45.1159591 L78.5710344,45.1159591 C82.5570126,45.1159591 85.7137884,41.9712755 85.7137884,38.0005659 C85.7137884,34.0298564 82.5570126,30.8851728 78.5710344,30.8851728 Z M25.0003794,33.2569705 C22.7186671,33.2569705 21.4595995,33.9812393 20.5268582,35.0265546 C19.5941146,36.0718698 19.0480843,37.6052655 19.0480843,39.1864648 C19.0480843,40.7676641 19.5941146,42.3010598 20.5268582,43.3463751 C21.4595995,44.3916904 22.7186671,45.1159591 25.0003794,45.1159591 C27.2820916,45.1159591 28.5411592,44.3916904 29.4739005,43.3463751 C30.4066441,42.3010598 30.9526744,40.7676641 30.9526744,39.1864648 C30.9526744,37.6052655 30.4066441,36.0718698 29.4739005,35.0265546 C28.5411592,33.9812393 27.2820916,33.2569705 25.0003794,33.2569705 Z"></path></clipPath></defs><g transform="translate(-992.0 -939.0)"><g clip-path="url(#i0)"><g transform="translate(992.0 939.0)"><g clip-path="url(#i1)"><polygon points="-2.1360691e-13,-1.41220369e-13 100,-1.41220369e-13 100,76 -2.1360691e-13,76 -2.1360691e-13,-1.41220369e-13" stroke="none" fill="#FF9C8B"></polygon></g></g></g></g></svg>