<?xml version="1.0" encoding="UTF-8"?><svg version="1.1" width="47px" height="47px" viewBox="0 0 47.0 47.0" xmlns="http://www.w3.org/2000/svg" xmlns:xlink="http://www.w3.org/1999/xlink"><defs><clipPath id="i0"><path d="M390,0 L390,860 L0,860 L0,0 L390,0 Z"></path></clipPath><clipPath id="i1"><path d="M21.5,0 C33.3628269,0 43,9.63717309 43,21.5 C43,33.3628269 33.3628269,43 21.5,43 C9.63717309,43 0,33.3628269 0,21.5 C0,9.63717309 9.63717309,0 21.5,0 Z"></path></clipPath><clipPath id="i2"><path d="M16.0341782,0.000264273036 C16.4229057,-0.00890937767 16.7774094,0.221460024 16.9269328,0.580408661 C17.0764561,0.939357297 16.9903392,1.35328272 16.7100628,1.62280627 L9.83335207,8.49973301 L16.7100628,15.3766598 C16.9563929,15.613168 17.0556213,15.9643712 16.9694788,16.2948216 C16.8833363,16.625272 16.6252837,16.8833326 16.2948437,16.9694778 C15.9644037,17.055623 15.6132115,16.9563915 15.3767107,16.7100537 L8.5,9.83312697 L1.62328926,16.7100537 C1.38678845,16.9563915 1.03559626,17.055623 0.705156257,16.9694778 C0.374716257,16.8833326 0.116663713,16.625272 0.0305212304,16.2948216 C-0.0556212519,15.9643712 0.0436071359,15.613168 0.289937181,15.3766598 L7.16664793,8.49973301 L0.289937181,1.62280627 C0.0149699793,1.35518502 -0.0704364588,0.947640751 0.0739457228,0.592133616 C0.218327904,0.236626482 0.563707369,0.00404836923 0.947404629,0.00394744732 C1.20199569,0.00396238627 1.44576412,0.106919784 1.62328926,0.289412313 L8.5,7.16633906 L15.3767107,0.289412313 C15.5491465,0.110074281 15.7854623,0.00614481911 16.0341782,0.000264273036 Z"></path></clipPath></defs><g transform="translate(-323.0 -80.0)"><g clip-path="url(#i0)"><g transform="translate(325.0 82.0)"><g clip-path="url(#i1)"><polygon points="0,0 43,0 43,43 0,43 0,0" stroke="none" fill="#FF9C8B"></polygon></g><path d="M21.5,0 C9.63717309,0 0,9.63717309 0,21.5 C0,33.3628269 9.63717309,43 21.5,43 C33.3628269,43 43,33.3628269 43,21.5 C43,9.63717309 33.3628269,0 21.5,0 Z" stroke="#FF9C8B" stroke-width="3" fill="none" stroke-miterlimit="10"></path><g transform="translate(13.0 13.0)"><g clip-path="url(#i2)"><polygon points="5.55111512e-16,2.88657986e-15 17,2.88657986e-15 17,17 5.55111512e-16,17 5.55111512e-16,2.88657986e-15" stroke="none" fill="#435790"></polygon></g></g></g></g></g></svg>