<?xml version="1.0" encoding="utf-8"?>
<svg width="78px" height="78px" viewBox="0 0 78 78" version="1.1" xmlns:xlink="http://www.w3.org/1999/xlink" xmlns="http://www.w3.org/2000/svg">
  <g id="icons8-facebook-circled">
    <path d="M39 0C17.4622 0 0 17.4622 0 39C0 60.5378 17.4622 78 39 78C60.5378 78 78 60.5378 78 39C78 17.4622 60.5378 0 39 0ZM52.5882 26L46.969 26C43.472 26 42.25 27.846 42.25 31.5835L42.25 35.75L52.5005 35.75L51.1095 45.5L42.25 45.5L42.25 71.3375C41.1807 71.4415 40.0985 71.5 39 71.5C36.7738 71.5 34.5995 71.2725 32.5 70.8467L32.5 45.5L22.75 45.5L22.75 35.75L32.5 35.75L32.5 30.5143C32.5 20.6017 37.3295 16.25 45.5683 16.25C49.5137 16.25 51.6003 16.5425 52.5882 16.6758L52.5882 26Z" id="Shape" fill="#435790" stroke="none" />
  </g>
</svg>