<?xml version="1.0" encoding="utf-8"?>
<svg width="44.00006px" height="44px" viewBox="0 0 44.00006 44" version="1.1" xmlns:xlink="http://www.w3.org/1999/xlink" xmlns="http://www.w3.org/2000/svg">
  <g id="icons8-facebook-circled">
    <path d="M22.0001 0C9.85059 0 8.76486e-05 9.8505 8.76486e-05 22C8.76486e-05 34.1495 9.85059 44 22.0001 44C34.1496 44 44.0001 34.1495 44.0001 22C44.0001 9.8505 34.1496 0 22.0001 0ZM29.6653 14.6667L26.4954 14.6667C24.5228 14.6667 23.8334 15.708 23.8334 17.8163L23.8334 20.1667L29.6158 20.1667L28.8311 25.6667L23.8334 25.6667L23.8334 40.2417C23.2303 40.3003 22.6198 40.3333 22.0001 40.3333C20.7443 40.3333 19.5178 40.205 18.3334 39.9648L18.3334 25.6667L12.8334 25.6667L12.8334 20.1667L18.3334 20.1667L18.3334 17.2132C18.3334 11.6215 21.0578 9.16667 25.7053 9.16667C27.9309 9.16667 29.1079 9.33167 29.6653 9.40683L29.6653 14.6667Z" id="Shape" fill="#FF9C8B" stroke="none" />
  </g>
</svg>