<?xml version="1.0" encoding="UTF-8"?><svg version="1.1" width="73px" height="76px" viewBox="0 0 73.0 76.0" xmlns="http://www.w3.org/2000/svg" xmlns:xlink="http://www.w3.org/1999/xlink"><defs><clipPath id="i0"><path d="M1440,0 L1440,4690 L0,4690 L0,0 L1440,0 Z"></path></clipPath><clipPath id="i1"><path d="M36.5,0 C38.8293063,0 41.1577244,0.74783973 43.0823573,2.24380219 L50.6944444,8.16212329 L50.6944444,4.97232798 C50.6946124,3.31434931 52.0563146,1.97033346 53.7361111,1.97016769 L63.875,1.97016769 C65.5547965,1.97033346 66.9164987,3.31434931 66.9166667,4.97232798 L66.9166667,20.7766685 L67.2018229,21.0033956 C70.8590459,23.8481766 73,28.1950165 73,32.7931292 L73,68.9949593 C73,72.8276272 69.785881,76 65.9027778,76 L7.09722222,76 C3.21411943,76 0,72.8276272 0,68.9949593 L0,32.7931292 C0,28.1950165 2.14095373,23.8481766 5.79817708,21.0033956 L29.9136825,2.24380219 C31.8422756,0.74783953 34.1706937,0 36.5,0 Z M36.5,5.98868433 C35.5067924,5.98868433 34.5132665,6.31446095 33.6801215,6.96204094 L9.56065589,25.7177239 C7.36165621,27.4282208 6.08333333,30.0299429 6.08333333,32.7931292 L6.08333333,68.9949593 C6.08333333,69.5854742 6.49893612,69.9956794 7.09722222,69.9956794 L65.9027778,69.9956794 C66.5010635,69.9956794 66.9166667,69.5854742 66.9166667,68.9949593 L66.9166667,32.7931292 C66.9166667,30.0299429 65.6383434,27.4282208 63.4393441,25.7177239 L61.9937616,24.5919138 C61.2616098,24.0230734 60.8339724,23.1544186 60.8333333,22.2347497 L60.8333333,7.97448827 L56.7777778,7.97448827 L56.7777778,14.3501701 C56.7767964,15.4994705 56.111189,16.5473777 55.0635334,17.0490116 C54.0158777,17.5506456 52.7700178,17.417979 51.8548727,16.7073342 L39.3198785,6.96204094 C38.4867335,6.31446095 37.4932076,5.98868433 36.5,5.98868433 Z M29.4027778,37.9726363 C31.0825743,37.9726363 32.4444444,39.3168179 32.4444444,40.9747966 L32.4444444,56.9863182 C32.4444444,58.6442968 31.0825743,59.9884784 29.4027778,59.9884784 L17.2361111,59.9884784 C15.5563146,59.9884784 14.1944444,58.6442968 14.1944444,56.9863182 L14.1944444,40.9747966 C14.1944444,39.3168179 15.5563146,37.9726363 17.2361111,37.9726363 Z M55.7638889,37.9726363 C57.4436854,37.9726363 58.8055556,39.3168179 58.8055556,40.9747966 L58.8055556,56.9863182 C58.8055556,58.6442968 57.4436854,59.9884784 55.7638889,59.9884784 L43.5972222,59.9884784 C41.9174257,59.9884784 40.5555556,58.6442968 40.5555556,56.9863182 L40.5555556,40.9747966 C40.5555556,39.3168179 41.9174257,37.9726363 43.5972222,37.9726363 Z M26.3611111,43.9769569 L20.2777778,43.9769569 L20.2777778,53.9841579 L26.3611111,53.9841579 L26.3611111,43.9769569 Z M52.7222222,43.9769569 L46.6388889,43.9769569 L46.6388889,53.9841579 L52.7222222,53.9841579 L52.7222222,43.9769569 Z"></path></clipPath></defs><g transform="translate(-685.0 -939.0)"><g clip-path="url(#i0)"><g transform="translate(685.0 939.0)"><g clip-path="url(#i1)"><polygon points="0,0 73,0 73,76 0,76 0,0" stroke="none" fill="#FF9C8B"></polygon></g></g></g></g></svg>