<?xml version="1.0" encoding="UTF-8"?><svg version="1.1" width="52px" height="76px" viewBox="0 0 52.0 76.0" xmlns="http://www.w3.org/2000/svg" xmlns:xlink="http://www.w3.org/1999/xlink"><defs><clipPath id="i0"><path d="M1440,0 L1440,4690 L0,4690 L0,0 L1440,0 Z"></path></clipPath><clipPath id="i1"><path d="M29.9333863,16.6319372 L30.2761534,16.6481942 C30.7681025,16.6834107 31.2633226,16.765087 31.7560938,16.8986807 C35.7007392,17.9793057 37.9851842,21.9241451 36.8584964,25.7075201 L32.3799891,40.7460937 L41.6900606,50.0837411 C42.1704506,50.5658661 42.4968483,51.1678526 42.6379938,51.8186026 L46.9714085,71.7092276 C47.3799876,73.5831026 46.1704226,75.4301852 44.2340053,75.8933102 C43.9294282,75.9645602 43.6267478,76 43.3295994,76 C41.7150929,76 40.2380175,74.9834264 39.7700088,73.4301764 L34.5466964,56.1789554 L20.2261155,46.015625 C20.2121124,46.0056832 20.2012392,45.9932477 20.1874243,45.983154 C20.0523901,45.8817439 19.9368588,45.763362 19.8101844,45.653808 C19.7531617,45.5989194 19.6887151,45.5492011 19.6360753,45.4914554 C17.7201637,43.7215222 16.8379919,41.0410687 17.6192942,38.4174799 L20.9999395,27.0759286 L15.5928434,28.4953616 L6.2779358,37.0166027 C5.55735085,37.6721004 4.63580441,38 3.71464427,38 C2.73405444,38 1.75361813,37.6322455 1.02560447,36.8959955 C-0.390800592,35.4709955 -0.331913201,33.2168972 1.15135273,31.8583972 L11.0901556,22.7666027 C11.4814011,22.3961027 11.9670531,22.1004889 12.5217301,21.9223639 L27.3646411,17.0007321 L27.4468596,16.9728995 L27.4807147,16.9636227 C27.5218623,16.9502752 27.5650776,16.9523652 27.606463,16.9404285 C28.4584989,16.6969482 29.3601241,16.5826181 30.2761534,16.6481942 Z M17.3339475,49.875 L26.784273,56.5825201 L26.5859809,58.0483392 C26.5042651,58.6658392 26.2517657,59.2520938 25.8605203,59.7460938 L14.0983948,74.5898437 C13.3703811,75.5113437 12.2627306,76 11.138519,76 C10.4129816,76 9.68570338,75.7987924 9.04435801,75.3784174 C7.41251786,74.3049174 6.94280542,72.1901295 7.98034871,70.5727545 L17.3339475,55.9934085 L17.3339475,49.875 Z M40.3213578,31.3806161 L50.5164908,38.7143549 C52.1557597,39.8947299 52.4871495,42.1263036 51.2564598,43.7009286 C50.5259699,44.6343036 49.4112373,45.125 48.2820733,45.125 C47.5045349,45.125 46.7259119,44.8903951 46.0573279,44.4106451 L38.1353061,38.7143549 L40.3213578,31.3806161 Z M37.139007,0 C41.2470841,0 44.5725539,3.19211162 44.5725539,7.12036163 C44.5725539,11.0581116 41.2470841,14.25 37.139007,14.25 C33.0358824,14.25 29.7151322,11.0581116 29.7151322,7.12036163 C29.7151322,3.19211162 33.0358824,0 37.139007,0 Z"></path></clipPath></defs><g transform="translate(-375.0 -939.0)"><g clip-path="url(#i0)"><g transform="translate(375.0000000000001 939.0)"><g clip-path="url(#i1)"><polygon points="2.66453526e-15,0 52,0 52,76 2.66453526e-15,76 2.66453526e-15,0" stroke="none" fill="#FF9C8B"></polygon></g></g></g></g></svg>