<?xml version="1.0" encoding="utf-8"?>
<svg width="78px" height="78px" viewBox="0 0 78 78" version="1.1" xmlns:xlink="http://www.w3.org/1999/xlink" xmlns="http://www.w3.org/2000/svg">
  <g id="icons8-instagram-circle">
    <path d="M39 0C17.496 0 0 17.496 0 39C0 60.504 17.496 78 39 78C60.504 78 78 60.504 78 39C78 17.496 60.504 0 39 0ZM28.998 12L48.9961 12C58.3711 12 66 19.626 66 28.998L66 48.9961C66 58.3711 58.374 66 49.0019 66L29.0039 66C19.6289 66 12 58.374 12 49.0019L12 29.0039C12 19.6289 19.626 12 28.998 12ZM28.998 18C22.935 18 18 22.9379 18 29.0039L18 49.002C18 55.065 22.9379 60 29.0039 60L49.002 60C55.065 60 60 55.0621 60 48.9961L60 28.998C60 22.935 55.0621 18 48.9961 18L28.998 18ZM53.0039 22.998C54.1079 22.998 55.002 23.8921 55.002 24.9961C55.002 26.1001 54.1079 27 53.0039 27C51.8999 27 51 26.1001 51 24.9961C51 23.8921 51.8999 22.998 53.0039 22.998ZM39 24C47.271 24 54 30.729 54 39C54 47.271 47.271 54 39 54C30.729 54 24 47.271 24 39C24 30.729 30.729 24 39 24ZM39 30C34.0294 30 30 34.0294 30 39C30 43.9706 34.0294 48 39 48C43.9706 48 48 43.9706 48 39C48 34.0294 43.9706 30 39 30Z" id="Shape" fill="#435790" stroke="none" />
  </g>
</svg>