<?xml version="1.0" encoding="utf-8"?>
<svg width="44px" height="44px" viewBox="0 0 44 44" version="1.1" xmlns:xlink="http://www.w3.org/1999/xlink" xmlns="http://www.w3.org/2000/svg">
  <g id="icons8-instagram-circle">
    <path d="M22 0C9.86954 0 0 9.86954 0 22C0 34.1305 9.86954 44 22 44C34.1305 44 44 34.1305 44 22C44 9.86954 34.1305 0 22 0ZM16.3579 6.76923L27.6388 6.76923C32.9273 6.76923 37.2308 11.0711 37.2308 16.3579L37.2308 27.6388C37.2308 32.9273 32.9289 37.2308 27.6421 37.2308L16.3612 37.2308C11.0727 37.2308 6.76923 32.9289 6.76923 27.6421L6.76923 16.3612C6.76923 11.0727 11.0711 6.76923 16.3579 6.76923ZM16.3579 10.1538C12.9377 10.1538 10.1538 12.9393 10.1538 16.3612L10.1538 27.6421C10.1538 31.0623 12.9393 33.8462 16.3612 33.8462L27.6421 33.8462C31.0623 33.8462 33.8462 31.0607 33.8462 27.6388L33.8462 16.3579C33.8462 12.9377 31.0607 10.1538 27.6388 10.1538L16.3579 10.1538ZM29.8996 12.9733C30.5224 12.9733 31.0267 13.4776 31.0267 14.1004C31.0267 14.7231 30.5224 15.2308 29.8996 15.2308C29.2769 15.2308 28.7692 14.7231 28.7692 14.1004C28.7692 13.4776 29.2769 12.9733 29.8996 12.9733ZM22 13.5385C26.6657 13.5385 30.4615 17.3343 30.4615 22C30.4615 26.6657 26.6657 30.4615 22 30.4615C17.3343 30.4615 13.5385 26.6657 13.5385 22C13.5385 17.3343 17.3343 13.5385 22 13.5385ZM22 16.9231C19.1961 16.9231 16.9231 19.1961 16.9231 22C16.9231 24.8039 19.1961 27.0769 22 27.0769C24.8039 27.0769 27.0769 24.8039 27.0769 22C27.0769 19.1961 24.8039 16.9231 22 16.9231Z" id="Shape" fill="#FF9C8B" stroke="none" />
  </g>
</svg>