<?xml version="1.0" encoding="utf-8"?>
<svg width="109px" height="132px" viewBox="0 0 109 132" version="1.1" xmlns:xlink="http://www.w3.org/1999/xlink" xmlns="http://www.w3.org/2000/svg">
  <g id="icons8-placeholder-2">
    <path d="M96.7513 86.7384C87.3908 101.085 76.3754 115.111 63.9358 128.103C58.9192 133.339 51.0052 133.258 46.0655 128.103C34.285 115.799 23.1403 101.897 13.25 86.7384C-1.02047 64.8992 1.48179 35.0649 18.9529 16.1503C38.8423 -5.37916 71.1485 -5.38769 91.0457 16.1503C108.52 35.0649 111.019 64.8992 96.7513 86.7384Z" id="Path" fill="#FF9C8B" stroke="none" />
    <path d="M97.2892 20.5764C101.595 25.7774 97.1566 33.8732 90.8141 32.3617C56.7379 24.2417 24.6097 51.8524 24.4364 88.8775C24.4039 95.8352 15.9922 98.6387 12.2246 92.9642C-3.95288 68.5979 -0.113827 37.3527 17.9713 18.0233C41.0502 -6.63964 77.4501 -3.3875 97.2892 20.5764Z" id="Path" fill="#435790" stroke="none" />
    <path d="M99.0828 87.3165C90.8651 99.1784 81.5005 110.712 71.2242 121.47C70.3944 122.339 69.031 122.357 68.1783 121.509C67.3264 120.662 67.3089 119.27 68.1393 118.401C77.8176 108.27 87.1082 96.9842 95.5652 84.7783C119.018 50.941 94.786 4.39603 54.5134 4.39603C14.2474 4.39603 -10.0061 50.9223 13.4594 84.7781C23.2901 98.9646 34.5257 112.323 46.846 124.452C48.9092 126.484 51.632 127.603 54.5134 127.604L85.1419 127.604C86.3314 127.604 87.2958 128.588 87.2958 129.802C87.2958 131.016 86.3314 132 85.1419 132C76.4808 132 32.4302 132 23.7556 132C22.5661 132 21.6017 131.016 21.6017 129.802C21.6017 128.588 22.5661 127.604 23.7556 127.604L43.8429 127.604C31.8012 115.747 20.2832 102.241 9.94233 87.3165C-15.3286 50.8561 10.4983 0.00357178 54.5091 0C98.8039 -0.00357178 124.193 51.0882 99.0828 87.3165ZM54.505 84.7426C53.3155 84.7426 52.3511 85.7268 52.3511 86.9406C52.3511 88.1545 53.3155 89.1387 54.505 89.1387C72.5747 89.1387 87.3946 74.0122 87.3946 55.5755C87.3946 37.1352 72.5709 22.012 54.505 22.012C26.9393 22.012 10.8297 55.6049 29.8145 77.6573C30.5994 78.5692 31.9606 78.6591 32.8542 77.8579C33.7478 77.0564 33.8359 75.6678 33.0505 74.7557C16.8876 55.9813 29.9895 26.4081 54.505 26.4081C70.2652 26.4081 83.0868 39.4926 83.0868 55.5755C83.0868 71.6581 70.2652 84.7426 54.505 84.7426ZM39.863 80.5727C38.8445 79.9455 37.5207 80.2801 36.906 81.3189C36.2916 82.3583 36.619 83.7093 37.6373 84.3365C38.4417 84.8319 39.2772 85.2979 40.1202 85.721C41.1888 86.2573 42.479 85.8076 43.0037 84.7193C43.529 83.6302 43.0893 82.3127 42.0221 81.7767C41.2889 81.4085 40.5625 81.0035 39.863 80.5727Z" id="Shape" fill="#FFFFFF" stroke="none" />
  </g>
</svg>