<?xml version="1.0" encoding="UTF-8"?><svg version="1.1" width="39px" height="24px" viewBox="0 0 39.0 24.0" xmlns="http://www.w3.org/2000/svg" xmlns:xlink="http://www.w3.org/1999/xlink"><defs><clipPath id="i0"><path d="M390,0 L390,5404 L0,5404 L0,0 L390,0 Z"></path></clipPath><clipPath id="i1"><path d="M37,0 C38.1045695,-2.02906125e-16 39,0.8954305 39,2 C39,3.1045695 38.1045695,4 37,4 L2,4 C0.8954305,4 1.3527075e-16,3.1045695 0,2 C-1.3527075e-16,0.8954305 0.8954305,2.02906125e-16 2,0 L37,0 Z"></path></clipPath></defs><g transform="translate(-330.0 -92.0)"><g clip-path="url(#i0)"><g transform="translate(330.0 92.0)"><g transform="translate(0.0 20.0)"><g clip-path="url(#i1)"><polygon points="0,0 39,0 39,4 0,4 0,0" stroke="none" fill="#FF9C8B"></polygon></g></g><g transform="translate(0.0 10.0)"><g clip-path="url(#i1)"><polygon points="0,0 39,0 39,4 0,4 0,0" stroke="none" fill="#FF9C8B"></polygon></g></g><g clip-path="url(#i1)"><polygon points="0,0 39,0 39,4 0,4 0,0" stroke="none" fill="#FF9C8B"></polygon></g></g></g></g></svg>