<?xml version="1.0" encoding="UTF-8"?><svg version="1.1" width="14px" height="25px" viewBox="0 0 14.0 25.0" xmlns="http://www.w3.org/2000/svg" xmlns:xlink="http://www.w3.org/1999/xlink"><defs><clipPath id="i0"><path d="M1440,0 L1440,4690 L0,4690 L0,0 L1440,0 Z"></path></clipPath><clipPath id="i1"><path d="M1.04860928,0.00336015069 C1.38641554,-0.0226243493 1.71989012,0.102969803 1.94942449,0.349827542 L13.036381,11.4367841 C13.2529237,11.6446645 13.3741873,11.9348312 13.3741873,12.2336591 C13.3741873,12.5324869 13.2529237,12.8226536 13.036381,13.0305341 L1.94942449,24.1174906 C1.50767912,24.5592371 0.797420971,24.5592371 0.355674493,24.1174906 C-0.0860708765,23.6757452 -0.0860708765,22.9654871 0.355674493,22.5237406 L10.645756,12.2336591 L0.355674493,1.94357754 C0.0481844061,1.6577425 -0.0730791809,1.22465826 0.0438538408,0.81755852 C0.160786863,0.414790455 0.49426145,0.111630933 0.910022319,0.0380068898 C0.953331297,0.0250140855 1.00096973,0.0120223898 1.04860928,0.00336015069 Z"></path></clipPath></defs><g transform="translate(-663.0 -1935.0)"><g clip-path="url(#i0)"><g transform="translate(644.0 1922.0)"><g transform="translate(19.033020602484836 13.284858619565064)"><g clip-path="url(#i1)"><polygon points="-8.60422844e-16,4.99600361e-16 13.3741873,4.99600361e-16 13.3741873,24.4488004 -8.60422844e-16,24.4488004 -8.60422844e-16,4.99600361e-16" stroke="none" fill="#435790"></polygon></g></g></g></g></g></svg>